<?xml version="1.0" encoding="UTF-8" standalone="no"?>
<!-- Created with Inkscape (http://www.inkscape.org/) -->

<svg
   width="512"
   height="512"
   viewBox="0 0 512 512"
   version="1.1"
   id="svg5"
   inkscape:version="1.2.1 (9c6d41e410, 2022-07-14)"
   sodipodi:docname="nancy.svg"
   inkscape:export-filename="C:\Users\raffa\OneDrive - University of Pisa\icona-nancy-2.png"
   inkscape:export-xdpi="96"
   inkscape:export-ydpi="96"
   xmlns:inkscape="http://www.inkscape.org/namespaces/inkscape"
   xmlns:sodipodi="http://sodipodi.sourceforge.net/DTD/sodipodi-0.dtd"
   xmlns="http://www.w3.org/2000/svg"
   xmlns:svg="http://www.w3.org/2000/svg">
  <sodipodi:namedview
     id="namedview7"
     pagecolor="#ffffff"
     bordercolor="#111111"
     borderopacity="1"
     inkscape:pageshadow="0"
     inkscape:pageopacity="0"
     inkscape:pagecheckerboard="1"
     inkscape:document-units="px"
     showgrid="false"
     inkscape:zoom="1.6738281"
     inkscape:cx="127.55193"
     inkscape:cy="256.59744"
     inkscape:window-width="3440"
     inkscape:window-height="1361"
     inkscape:window-x="-9"
     inkscape:window-y="-9"
     inkscape:window-maximized="1"
     inkscape:current-layer="layer1"
     inkscape:showpageshadow="2"
     inkscape:deskcolor="#d1d1d1" />
  <defs
     id="defs2">
    <marker
       style="overflow:visible;"
       id="marker57827"
       refX="0.0"
       refY="0.0"
       orient="auto"
       inkscape:stockid="Arrow2Mend"
       inkscape:isstock="true">
      <path
         transform="scale(0.6) rotate(180) translate(0,0)"
         d="M 8.7185878,4.0337352 L -2.2072895,0.016013256 L 8.7185884,-4.0017078 C 6.9730900,-1.6296469 6.9831476,1.6157441 8.7185878,4.0337352 z "
         style="stroke:context-stroke;fill-rule:evenodd;fill:context-stroke;stroke-width:0.62500000;stroke-linejoin:round;"
         id="path57825" />
    </marker>
    <marker
       style="overflow:visible;"
       id="marker57817"
       refX="0.0"
       refY="0.0"
       orient="auto"
       inkscape:stockid="Arrow2Send"
       inkscape:isstock="true">
      <path
         transform="scale(0.3) rotate(180) translate(-2.3,0)"
         d="M 8.7185878,4.0337352 L -2.2072895,0.016013256 L 8.7185884,-4.0017078 C 6.9730900,-1.6296469 6.9831476,1.6157441 8.7185878,4.0337352 z "
         style="stroke:context-stroke;fill-rule:evenodd;fill:context-stroke;stroke-width:0.62500000;stroke-linejoin:round;"
         id="path57815" />
    </marker>
    <marker
       style="overflow:visible"
       id="Arrow2Mstart"
       refX="0.0"
       refY="0.0"
       orient="auto"
       inkscape:stockid="Arrow2Mstart"
       inkscape:isstock="true">
      <path
         transform="scale(0.6) translate(0,0)"
         d="M 8.7185878,4.0337352 L -2.2072895,0.016013256 L 8.7185884,-4.0017078 C 6.9730900,-1.6296469 6.9831476,1.6157441 8.7185878,4.0337352 z "
         style="stroke:context-stroke;fill-rule:evenodd;fill:context-stroke;stroke-width:0.62500000;stroke-linejoin:round"
         id="path55034" />
    </marker>
    <marker
       style="overflow:visible;"
       id="marker56565"
       refX="0.0"
       refY="0.0"
       orient="auto"
       inkscape:stockid="Arrow2Mend"
       inkscape:isstock="true">
      <path
         transform="scale(0.6) rotate(180) translate(0,0)"
         d="M 8.7185878,4.0337352 L -2.2072895,0.016013256 L 8.7185884,-4.0017078 C 6.9730900,-1.6296469 6.9831476,1.6157441 8.7185878,4.0337352 z "
         style="stroke:context-stroke;fill-rule:evenodd;fill:context-stroke;stroke-width:0.62500000;stroke-linejoin:round;"
         id="path56563" />
    </marker>
    <marker
       style="overflow:visible;"
       id="Arrow2Send"
       refX="0.0"
       refY="0.0"
       orient="auto"
       inkscape:stockid="Arrow2Send"
       inkscape:isstock="true">
      <path
         transform="scale(0.3) rotate(180) translate(-2.3,0)"
         d="M 8.7185878,4.0337352 L -2.2072895,0.016013256 L 8.7185884,-4.0017078 C 6.9730900,-1.6296469 6.9831476,1.6157441 8.7185878,4.0337352 z "
         style="stroke:context-stroke;fill-rule:evenodd;fill:context-stroke;stroke-width:0.62500000;stroke-linejoin:round;"
         id="path55043" />
    </marker>
    <marker
       style="overflow:visible;"
       id="marker55613"
       refX="0.0"
       refY="0.0"
       orient="auto"
       inkscape:stockid="Arrow2Mend"
       inkscape:isstock="true">
      <path
         transform="scale(0.6) rotate(180) translate(0,0)"
         d="M 8.7185878,4.0337352 L -2.2072895,0.016013256 L 8.7185884,-4.0017078 C 6.9730900,-1.6296469 6.9831476,1.6157441 8.7185878,4.0337352 z "
         style="stroke:context-stroke;fill-rule:evenodd;fill:context-stroke;stroke-width:0.62500000;stroke-linejoin:round;"
         id="path55611" />
    </marker>
    <marker
       style="overflow:visible;"
       id="marker55603"
       refX="0.0"
       refY="0.0"
       orient="auto"
       inkscape:stockid="Arrow2Mend"
       inkscape:isstock="true">
      <path
         transform="scale(0.6) rotate(180) translate(0,0)"
         d="M 8.7185878,4.0337352 L -2.2072895,0.016013256 L 8.7185884,-4.0017078 C 6.9730900,-1.6296469 6.9831476,1.6157441 8.7185878,4.0337352 z "
         style="stroke:context-stroke;fill-rule:evenodd;fill:context-stroke;stroke-width:0.62500000;stroke-linejoin:round;"
         id="path55601" />
    </marker>
    <marker
       style="overflow:visible;"
       id="marker55593"
       refX="0.0"
       refY="0.0"
       orient="auto"
       inkscape:stockid="Arrow1Lend"
       inkscape:isstock="true">
      <path
         transform="scale(0.8) rotate(180) translate(12.5,0)"
         style="fill-rule:evenodd;fill:context-stroke;stroke:context-stroke;stroke-width:1.0pt;"
         d="M 0.0,0.0 L 5.0,-5.0 L -12.5,0.0 L 5.0,5.0 L 0.0,0.0 z "
         id="path55591" />
    </marker>
    <marker
       style="overflow:visible;"
       id="Arrow2Mend"
       refX="0.0"
       refY="0.0"
       orient="auto"
       inkscape:stockid="Arrow2Mend"
       inkscape:isstock="true">
      <path
         transform="scale(0.6) rotate(180) translate(0,0)"
         d="M 8.7185878,4.0337352 L -2.2072895,0.016013256 L 8.7185884,-4.0017078 C 6.9730900,-1.6296469 6.9831476,1.6157441 8.7185878,4.0337352 z "
         style="stroke:context-stroke;fill-rule:evenodd;fill:context-stroke;stroke-width:0.62500000;stroke-linejoin:round;"
         id="path55037" />
    </marker>
    <marker
       style="overflow:visible;"
       id="marker55575"
       refX="0.0"
       refY="0.0"
       orient="auto"
       inkscape:stockid="Arrow2Lend"
       inkscape:isstock="true">
      <path
         transform="scale(1.1) rotate(180) translate(1,0)"
         d="M 8.7185878,4.0337352 L -2.2072895,0.016013256 L 8.7185884,-4.0017078 C 6.9730900,-1.6296469 6.9831476,1.6157441 8.7185878,4.0337352 z "
         style="stroke:context-stroke;fill-rule:evenodd;fill:context-stroke;stroke-width:0.62500000;stroke-linejoin:round;"
         id="path55573" />
    </marker>
    <marker
       style="overflow:visible;"
       id="Arrow2Lend"
       refX="0.0"
       refY="0.0"
       orient="auto"
       inkscape:stockid="Arrow2Lend"
       inkscape:isstock="true">
      <path
         transform="scale(1.1) rotate(180) translate(1,0)"
         d="M 8.7185878,4.0337352 L -2.2072895,0.016013256 L 8.7185884,-4.0017078 C 6.9730900,-1.6296469 6.9831476,1.6157441 8.7185878,4.0337352 z "
         style="stroke:context-stroke;fill-rule:evenodd;fill:context-stroke;stroke-width:0.62500000;stroke-linejoin:round;"
         id="path55031" />
    </marker>
    <marker
       style="overflow:visible;"
       id="Arrow1Lend"
       refX="0.0"
       refY="0.0"
       orient="auto"
       inkscape:stockid="Arrow1Lend"
       inkscape:isstock="true">
      <path
         transform="scale(0.8) rotate(180) translate(12.5,0)"
         style="fill-rule:evenodd;fill:context-stroke;stroke:context-stroke;stroke-width:1.0pt;"
         d="M 0.0,0.0 L 5.0,-5.0 L -12.5,0.0 L 5.0,5.0 L 0.0,0.0 z "
         id="path55013" />
    </marker>
    <rect
       x="264.18915"
       y="152.38943"
       width="277.71905"
       height="377.41307"
       id="rect30268" />
    <rect
       x="71.922114"
       y="145.98053"
       width="96.133519"
       height="159.51043"
       id="rect24600" />
    <rect
       x="41.301808"
       y="130.31433"
       width="79.043115"
       height="136.72323"
       id="rect12098" />
    <rect
       x="107.52712"
       y="106.10292"
       width="331.12656"
       height="322.58136"
       id="rect7472" />
    <marker
       style="overflow:visible"
       id="Arrow2Lend-4"
       refX="0"
       refY="0"
       orient="auto"
       inkscape:stockid="Arrow2Lend"
       inkscape:isstock="true">
      <path
         transform="matrix(-1.1,0,0,-1.1,-1.1,0)"
         d="M 8.7185878,4.0337352 -2.2072895,0.01601326 8.7185884,-4.0017078 c -1.7454984,2.3720609 -1.7354408,5.6174519 -6e-7,8.035443 z"
         style="fill:context-stroke;fill-rule:evenodd;stroke:context-stroke;stroke-width:0.625;stroke-linejoin:round"
         id="path55031-9" />
    </marker>
    <rect
       x="107.52712"
       y="106.10292"
       width="331.12656"
       height="322.58136"
       id="rect2656" />
    <rect
       x="41.301808"
       y="130.31433"
       width="79.043115"
       height="136.72323"
       id="rect2658" />
    <rect
       x="71.922114"
       y="145.98053"
       width="96.133519"
       height="159.51043"
       id="rect2660" />
    <rect
       x="264.18915"
       y="152.38943"
       width="277.71905"
       height="377.41307"
       id="rect2662" />
  </defs>
  <g
     inkscape:groupmode="layer"
     id="layer4"
     inkscape:label="Sfondo 2"
     style="display:none">
    <circle
       style="fill:#b0b0b0;fill-opacity:1;fill-rule:evenodd"
       id="path31"
       cx="256"
       cy="256"
       r="256" />
  </g>
  <g
     inkscape:groupmode="layer"
     id="layer2"
     inkscape:label="Sfondo 1">
    <rect
       style="fill:#5cc9e6;fill-opacity:1"
       id="rect53641"
       width="512"
       height="512"
       x="0"
       y="0"
       rx="120"
       ry="120" />
  </g>
  <g
     inkscape:groupmode="layer"
     id="layer3"
     inkscape:label="Graph"
     style="display:none">
    <path
       style="display:inline;fill:none;stroke:#ffffff;stroke-width:8;stroke-linecap:butt;stroke-linejoin:miter;stroke-miterlimit:4;stroke-dasharray:none;stroke-dashoffset:0;stroke-opacity:1;marker-start:url(#Arrow2Mstart);marker-end:url(#marker57827)"
       d="M 480,400 H 45 V 95"
       id="path55008-3"
       sodipodi:nodetypes="ccc" />
  </g>
  <g
     inkscape:label="Testo"
     inkscape:groupmode="layer"
     id="layer1"
     style="display:none">
    <text
       xml:space="preserve"
       style="font-size:293.333px;line-height:1.25;font-family:Nunito;-inkscape-font-specification:Nunito;fill:#ffffff"
       x="54.48003"
       y="354.85309"
       id="text25068"><tspan
         sodipodi:role="line"
         id="tspan25066"
         x="54.48003"
         y="354.85309"
         style="font-style:normal;font-variant:normal;font-weight:600;font-stretch:normal;font-size:293.333px;font-family:Nunito;-inkscape-font-specification:'Nunito Semi-Bold';fill:#ffffff;fill-opacity:1">N</tspan></text>
    <text
       xml:space="preserve"
       id="text30266"
       style="font-size:293.333px;line-height:1.25;font-family:Nunito;-inkscape-font-specification:Nunito;white-space:pre;shape-inside:url(#rect30268)"
       transform="translate(-2.0827666,-51.034644)"><tspan
         x="264.18945"
         y="406.47441"
         id="tspan2726"><tspan
           style="font-weight:600;-inkscape-font-specification:'Nunito Semi-Bold'"
           id="tspan2724">C</tspan></tspan></text>
  </g>
  <g
     inkscape:label="Testo tracciato"
     inkscape:groupmode="layer"
     id="g2654"
     style="display:inline">
    <g
       aria-label="C"
       transform="translate(-2.0827666,-51.034644)"
       id="text2652"
       style="font-size:293.333px;line-height:1.25;font-family:Nunito;-inkscape-font-specification:Nunito;white-space:pre;shape-inside:url(#rect2662)">
      <path
         d="m 380.93599,409.11441 q -31.38663,0 -53.67994,-12.90665 -22.29331,-12.90666 -34.31996,-36.66663 -11.73332,-24.05331 -11.73332,-56.61327 0,-24.34664 6.74666,-43.70662 6.74666,-19.65331 19.35998,-33.43996 12.90665,-14.07999 31.38663,-21.41331 18.77331,-7.33333 42.23995,-7.33333 17.30665,0 33.14663,4.69333 16.13332,4.69333 27.86664,13.49332 4.98666,3.22666 6.45332,7.91999 1.76,4.4 0.58667,8.50666 -0.88,4.10666 -3.81333,7.03999 -2.93333,2.64 -7.62666,2.93333 -4.39999,0.29333 -9.67999,-3.22666 -9.67999,-7.33333 -21.41331,-10.85332 -11.73332,-3.52 -24.63997,-3.52 -22.29331,0 -37.54663,9.38666 -15.25331,9.09332 -23.1733,26.6933 -7.91999,17.59998 -7.91999,42.82662 0,25.22664 7.91999,43.11995 7.91999,17.59998 23.1733,26.98664 15.25332,9.09332 37.54663,9.09332 12.90665,0 24.63997,-3.51999 12.02666,-3.81333 22.58664,-11.14666 5.28,-3.22666 9.38666,-2.93333 4.39999,0.29333 7.33332,2.93333 2.93334,2.64 3.81333,6.74666 1.17334,3.81333 -0.29333,8.21332 -1.17333,4.10667 -5.57333,7.04 -12.02665,9.67999 -28.4533,14.66665 -16.42665,4.98666 -34.31996,4.98666 z"
         style="font-weight:600;-inkscape-font-specification:'Nunito Semi-Bold'"
         id="path2664" />
    </g>
    <g
       aria-label="N"
       id="text2646"
       style="font-size:293.333px;line-height:1.25;font-family:Nunito;-inkscape-font-specification:Nunito;fill:#ffffff">
      <path
         d="m 92.906654,356.90642 q -6.746659,0 -10.559988,-3.81333 -3.813329,-3.81333 -3.813329,-10.85332 V 161.2533 q 0,-7.33332 3.519996,-11.14665 3.813329,-4.10666 9.973322,-4.10666 5.279994,0 7.919991,2.05333 2.933334,1.76 6.746664,6.74666 L 227.5465,314.0798 h -7.33332 V 160.3733 q 0,-6.74665 3.52,-10.55998 3.81332,-3.81333 10.55998,-3.81333 7.04,0 10.55999,3.81333 3.52,3.81333 3.52,10.55998 v 182.1598 q 0,6.74666 -3.52,10.55999 -3.22666,3.81333 -8.79999,3.81333 -5.27999,0 -8.79999,-2.05333 -3.22666,-2.05333 -7.03999,-7.03999 L 99.946646,188.82661 h 6.746664 v 153.41316 q 0,7.03999 -3.52,10.85332 -3.519997,3.81333 -10.266656,3.81333 z"
         style="font-weight:600;-inkscape-font-specification:'Nunito Semi-Bold'"
         id="path2667" />
    </g>
  </g>
</svg>
