<?xml version="1.0" encoding="UTF-8" standalone="no"?>
<!-- Created with Inkscape (http://www.inkscape.org/) -->

<svg
   width="512"
   height="512"
   viewBox="0 0 135.46666 135.46667"
   version="1.1"
   id="svg5"
   inkscape:version="1.1.2 (0a00cf5339, 2022-02-04, custom)"
   sodipodi:docname="todo.svg"
   xmlns:inkscape="http://www.inkscape.org/namespaces/inkscape"
   xmlns:sodipodi="http://sodipodi.sourceforge.net/DTD/sodipodi-0.dtd"
   xmlns="http://www.w3.org/2000/svg"
   xmlns:svg="http://www.w3.org/2000/svg">
  <sodipodi:namedview
     id="namedview7"
     pagecolor="#ffffff"
     bordercolor="#111111"
     borderopacity="1"
     inkscape:pageshadow="0"
     inkscape:pageopacity="0"
     inkscape:pagecheckerboard="1"
     inkscape:document-units="mm"
     showgrid="false"
     units="px"
     width="512px"
     inkscape:zoom="0.45291836"
     inkscape:cx="393.00681"
     inkscape:cy="449.30835"
     inkscape:window-width="1920"
     inkscape:window-height="1121"
     inkscape:window-x="-9"
     inkscape:window-y="-9"
     inkscape:window-maximized="1"
     inkscape:current-layer="layer1" />
  <defs
     id="defs2">
    <inkscape:path-effect
       effect="powermask"
       id="path-effect3807"
       is_visible="true"
       lpeversion="1"
       uri="#mask-powermask-path-effect3807"
       invert="false"
       hide_mask="false"
       background="true"
       background_color="#ffffffff" />
    <rect
       x="132.70399"
       y="310.68347"
       width="814.95868"
       height="568.28534"
       id="rect4764" />
    <rect
       x="132.70399"
       y="310.68347"
       width="814.95868"
       height="568.28534"
       id="rect39992" />
    <filter
       id="mask-powermask-path-effect3653_inverse"
       inkscape:label="filtermask-powermask-path-effect3653"
       style="color-interpolation-filters:sRGB"
       height="100"
       width="100"
       x="-50"
       y="-50">
      <feColorMatrix
         id="mask-powermask-path-effect3653_primitive1"
         values="1"
         type="saturate"
         result="fbSourceGraphic" />
      <feColorMatrix
         id="mask-powermask-path-effect3653_primitive2"
         values="-1 0 0 0 1 0 -1 0 0 1 0 0 -1 0 1 0 0 0 1 0 "
         in="fbSourceGraphic" />
    </filter>
    <rect
       x="132.70399"
       y="310.68347"
       width="814.95868"
       height="568.28534"
       id="rect39992-3" />
    <mask
       maskUnits="userSpaceOnUse"
       id="mask-powermask-path-effect3807">
      <path
         id="mask-powermask-path-effect3807_box"
         style="fill:#ffffff;fill-opacity:1"
         d="M -0.95654599,-0.70852702 H 136.1598 V 131.84121 H -0.95654599 Z" />
      <text
         xml:space="preserve"
         transform="matrix(0.25741033,-0.06119036,0.06119036,0.25741033,-42.780532,7.6117653)"
         id="text3805"
         style="font-size:133.333px;line-height:1.25;font-family:Nunito;-inkscape-font-specification:Nunito;white-space:pre;shape-inside:url(#rect39992-3);display:inline;fill:#000000"><tspan
           x="132.70312"
           y="426.17694"
           id="tspan3838">TO DO</tspan></text>
    </mask>
    <filter
       id="mask-powermask-path-effect3807_inverse"
       inkscape:label="filtermask-powermask-path-effect3807"
       style="color-interpolation-filters:sRGB"
       height="100"
       width="100"
       x="-50"
       y="-50">
      <feColorMatrix
         id="mask-powermask-path-effect3807_primitive1"
         values="1"
         type="saturate"
         result="fbSourceGraphic" />
      <feColorMatrix
         id="mask-powermask-path-effect3807_primitive2"
         values="-1 0 0 0 1 0 -1 0 0 1 0 0 -1 0 1 0 0 0 1 0 "
         in="fbSourceGraphic" />
    </filter>
  </defs>
  <g
     inkscape:label="Livello 1"
     inkscape:groupmode="layer"
     id="layer1"
     style="display:inline">
    <path
       d="M 67.605464,0.48088359 C 67.02717,0.73790074 66.615938,1.1234308 66.307514,1.714578 c -0.179911,0.3598257 -0.334125,0.48833 -0.552591,0.48833 -0.15421,0 -0.655401,0.1799215 -1.092333,0.3983865 -1.477864,0.7453558 -2.287476,2.2232195 -2.171817,3.9581003 0.03855,0.4626344 0.03855,0.7453558 0.01286,0.6168429 -0.03855,-0.1156564 -0.102807,-0.218465 -0.167062,-0.218465 -0.167062,0 -0.758208,1.285103 -0.822463,1.7734328 -0.05141,0.4497952 -0.01286,0.4497952 0.668252,-0.1542083 0.154211,-0.1413608 0.282722,-0.2184651 0.282722,-0.1799129 0,0.167065 -4.202269,3.8552917 -44.335879,38.9770167 C 7.8484192,56.369788 6.5890205,57.462122 6.4605163,57.462122 c -0.6039951,0 -3.2898576,0.578299 -3.8167483,0.82246 -0.8867165,0.398386 -1.67062444,1.207998 -2.09470659,2.120419 -0.26986497,0.578291 -0.33412142,0.925269 -0.3469779,1.824833 -0.0128824,0.603995 -0.0642392,1.169438 -0.12850425,1.272247 -0.06423916,0.102808 -0.02576483,0.231321 0.11565642,0.33413 0.14136073,0.102808 0.28272145,0.514043 0.39837787,1.182285 0.10280859,0.552596 0.61685145,3.611132 1.15659005,6.785315 0.5397386,3.174193 1.2593988,7.466423 1.6063767,9.522578 1.5678158,9.252705 1.9661937,11.604438 2.8272145,16.680576 0.5011865,2.968575 1.1951336,7.068035 1.5421115,9.124195 0.3469779,2.0433 0.9509727,5.62872 1.3493506,7.96761 2.2746281,13.46782 2.1589721,12.83813 2.6730061,13.72484 0.732508,1.25939 2.094715,2.0176 3.585427,2.0176 0.43693,0 3.366952,-0.43693 6.515442,-0.96383 3.14849,-0.53973 7.415014,-1.25939 9.458321,-1.60636 5.564474,-0.93813 10.524952,-1.78629 57.379626,-9.70249 23.645801,-3.99666 43.294941,-7.35076 43.654771,-7.45357 0.95097,-0.28272 1.9405,-1.11804 2.41599,-2.04331 0.69394,-1.37505 0.7068,-1.29794 -1.60638,-14.791473 -0.20562,-1.20799 -0.80961,-4.793417 -1.34935,-7.967611 -0.53974,-3.18704 -1.19514,-7.119436 -1.47786,-8.73866 -0.28273,-1.632073 -0.88672,-5.2175 -1.34936,-7.96761 -1.25939,-7.47927 -2.30032,-13.647734 -3.08424,-18.24839 -0.38552,-2.261772 -0.89956,-5.307451 -1.14373,-6.772467 -0.25702,-1.45216 -0.48834,-2.814358 -0.53974,-3.019975 -0.28272,-1.15659 -1.32365,-2.390285 -2.46739,-2.891471 -0.83531,-0.359826 -2.0947,-0.359826 -4.35648,0.01288 l -1.82484,0.308426 -0.6811,-0.43693 C 113.85614,37.915815 101.32643,29.652628 84.414541,18.48513 L 69.430299,8.5770231 69.68732,8.2043495 c 0.334125,-0.4754908 0.616845,-1.4007594 0.616845,-2.0690109 0,-0.4240822 0.07711,-0.6039951 0.398381,-0.9124208 0.231317,-0.2056172 0.488339,-0.5782908 0.591145,-0.8224601 0.24417,-0.5654429 0.231318,-1.6577766 0,-2.2232195 -0.616845,-1.47786366 -2.351728,-2.27462805 -3.68823,-1.69632867 z m -4.112313,9.11134281 -0.436932,0.4497866 0.578294,-0.01288 c 0.308421,-0.01288 0.706801,-0.051443 0.886715,-0.1028081 0.308425,-0.089961 0.321276,-0.1028086 0.03855,-0.1927694 -0.141362,-0.051357 -0.334128,-0.167065 -0.411232,-0.2570171 -0.0771,-0.089961 0.167063,-0.012882 0.539739,0.167065 0.950974,0.4754826 2.300328,0.4754826 3.315554,0 L 68.736345,9.2966225 84.38884,19.64166 c 8.623004,5.692981 18.81383,12.426896 22.65628,14.984246 l 6.99093,4.652047 -0.56544,0.08996 c -0.30843,0.03856 -2.27463,0.372673 -4.35649,0.732508 -2.08186,0.346969 -6.21987,1.053773 -9.188448,1.554968 -2.968575,0.501186 -7.247949,1.220838 -9.509721,1.606368 -2.261771,0.38553 -6.181325,1.040925 -8.700115,1.477863 -2.531643,0.424083 -6.656808,1.11803 -9.16275,1.542121 -2.505939,0.424082 -6.6054,1.118029 -9.085639,1.542111 -6.656808,1.118038 -13.056597,2.197515 -18.286945,3.084241 -5.166095,0.87386 -11.116098,1.876241 -16.706273,2.827214 C 21.13632,54.98185 12.38481,56.459714 10.881242,56.703883 10.045925,56.845244 9.3391219,56.935205 9.3134262,56.9095 9.249187,56.845261 10.50856,55.740054 36.0049,33.417907 58.301352,13.884422 63.750168,9.1424053 63.865827,9.1424053 c 0.03855,0 -0.128511,0.2056172 -0.37268,0.4497865 z"
       id="path18408"
       style="fill:#008000;stroke:none;stroke-width:0.0128509"
       inkscape:original-d="M 67.605464,0.48088359 C 67.02717,0.73790074 66.615938,1.1234308 66.307514,1.714578 c -0.179911,0.3598257 -0.334125,0.48833 -0.552591,0.48833 -0.15421,0 -0.655401,0.1799215 -1.092333,0.3983865 -1.477864,0.7453558 -2.287476,2.2232195 -2.171817,3.9581003 0.03855,0.4626344 0.03855,0.7453558 0.01286,0.6168429 -0.03855,-0.1156564 -0.102807,-0.218465 -0.167062,-0.218465 -0.167062,0 -0.758208,1.285103 -0.822463,1.7734328 -0.05141,0.4497952 -0.01286,0.4497952 0.668252,-0.1542083 0.154211,-0.1413608 0.282722,-0.2184651 0.282722,-0.1799129 0,0.167065 -4.202269,3.8552917 -44.335879,38.9770167 C 7.8484192,56.369788 6.5890205,57.462122 6.4605163,57.462122 c -0.6039951,0 -3.2898576,0.578299 -3.8167483,0.82246 -0.8867165,0.398386 -1.67062444,1.207998 -2.09470659,2.120419 -0.26986497,0.578291 -0.33412142,0.925269 -0.3469779,1.824833 -0.0128824,0.603995 -0.0642392,1.169438 -0.12850425,1.272247 -0.06423916,0.102808 -0.02576483,0.231321 0.11565642,0.33413 0.14136073,0.102808 0.28272145,0.514043 0.39837787,1.182285 0.10280859,0.552596 0.61685145,3.611132 1.15659005,6.785315 0.5397386,3.174193 1.2593988,7.466423 1.6063767,9.522578 1.5678158,9.252705 1.9661937,11.604438 2.8272145,16.680576 0.5011865,2.968575 1.1951336,7.068035 1.5421115,9.124195 0.3469779,2.0433 0.9509727,5.62872 1.3493506,7.96761 2.2746281,13.46782 2.1589721,12.83813 2.6730061,13.72484 0.732508,1.25939 2.094715,2.0176 3.585427,2.0176 0.43693,0 3.366952,-0.43693 6.515442,-0.96383 3.14849,-0.53973 7.415014,-1.25939 9.458321,-1.60636 5.564474,-0.93813 10.524952,-1.78629 57.379626,-9.70249 23.645801,-3.99666 43.294941,-7.35076 43.654771,-7.45357 0.95097,-0.28272 1.9405,-1.11804 2.41599,-2.04331 0.69394,-1.37505 0.7068,-1.29794 -1.60638,-14.791473 -0.20562,-1.20799 -0.80961,-4.793417 -1.34935,-7.967611 -0.53974,-3.18704 -1.19514,-7.119436 -1.47786,-8.73866 -0.28273,-1.632073 -0.88672,-5.2175 -1.34936,-7.96761 -1.25939,-7.47927 -2.30032,-13.647734 -3.08424,-18.24839 -0.38552,-2.261772 -0.89956,-5.307451 -1.14373,-6.772467 -0.25702,-1.45216 -0.48834,-2.814358 -0.53974,-3.019975 -0.28272,-1.15659 -1.32365,-2.390285 -2.46739,-2.891471 -0.83531,-0.359826 -2.0947,-0.359826 -4.35648,0.01288 l -1.82484,0.308426 -0.6811,-0.43693 C 113.85614,37.915815 101.32643,29.652628 84.414541,18.48513 L 69.430299,8.5770231 69.68732,8.2043495 c 0.334125,-0.4754908 0.616845,-1.4007594 0.616845,-2.0690109 0,-0.4240822 0.07711,-0.6039951 0.398381,-0.9124208 0.231317,-0.2056172 0.488339,-0.5782908 0.591145,-0.8224601 0.24417,-0.5654429 0.231318,-1.6577766 0,-2.2232195 -0.616845,-1.47786366 -2.351728,-2.27462805 -3.68823,-1.69632867 z m -4.112313,9.11134281 -0.436932,0.4497866 0.578294,-0.01288 c 0.308421,-0.01288 0.706801,-0.051443 0.886715,-0.1028081 0.308425,-0.089961 0.321276,-0.1028086 0.03855,-0.1927694 -0.141362,-0.051357 -0.334128,-0.167065 -0.411232,-0.2570171 -0.0771,-0.089961 0.167063,-0.012882 0.539739,0.167065 0.950974,0.4754826 2.300328,0.4754826 3.315554,0 L 68.736345,9.2966225 84.38884,19.64166 c 8.623004,5.692981 18.81383,12.426896 22.65628,14.984246 l 6.99093,4.652047 -0.56544,0.08996 c -0.30843,0.03856 -2.27463,0.372673 -4.35649,0.732508 -2.08186,0.346969 -6.21987,1.053773 -9.188448,1.554968 -2.968575,0.501186 -7.247949,1.220838 -9.509721,1.606368 -2.261771,0.38553 -6.181325,1.040925 -8.700115,1.477863 -2.531643,0.424083 -6.656808,1.11803 -9.16275,1.542121 -2.505939,0.424082 -6.6054,1.118029 -9.085639,1.542111 -6.656808,1.118038 -13.056597,2.197515 -18.286945,3.084241 -5.166095,0.87386 -11.116098,1.876241 -16.706273,2.827214 C 21.13632,54.98185 12.38481,56.459714 10.881242,56.703883 10.045925,56.845244 9.3391219,56.935205 9.3134262,56.9095 9.249187,56.845261 10.50856,55.740054 36.0049,33.417907 58.301352,13.884422 63.750168,9.1424053 63.865827,9.1424053 c 0.03855,0 -0.128511,0.2056172 -0.37268,0.4497865 z"
       mask="url(#mask-powermask-path-effect3807)"
       inkscape:path-effect="#path-effect3807" />
  </g>
  <g
     inkscape:groupmode="layer"
     id="layer3"
     inkscape:label="Livello 3"
     style="display:none">
    <path
       d="m 67.60551,0.480884 c -0.57829,0.257017 -0.98952,0.642547 -1.29795,1.233694 -0.17991,0.359826 -0.33412,0.48833 -0.55259,0.48833 -0.15421,0 -0.6554,0.179921 -1.09233,0.398387 -1.47786,0.745355 -2.28748,2.223219 -2.17182,3.9580998 0.0385,0.4626344 0.0385,0.7453558 0.0129,0.6168429 -0.0385,-0.1156564 -0.1028,-0.218465 -0.16706,-0.218465 -0.16706,0 -0.75821,1.285103 -0.82246,1.7734328 -0.0514,0.4497952 -0.0129,0.4497952 0.66825,-0.1542083 0.15421,-0.1413608 0.28272,-0.2184651 0.28272,-0.1799129 0,0.167065 -4.20227,3.8552917 -44.33588,38.9770167 C 7.84851,56.369788 6.58911,57.462122 6.46061,57.462122 c -0.604,0 -3.28986,0.578299 -3.81675,0.82246 -0.88672,0.398386 -1.67063,1.207998 -2.09471,2.120419 -0.26986,0.578291 -0.33412,0.925269 -0.34698,1.824833 -0.0129,0.603995 -0.0642,1.169438 -0.1285,1.272247 -0.0642,0.102808 -0.0258,0.231321 0.11566,0.33413 0.14136,0.102808 0.28272,0.514043 0.39837,1.182285 0.10281,0.552596 0.61685,3.611132 1.15659,6.785315 0.53974,3.174193 1.2594,7.466423 1.60638,9.522578 1.56782,9.252705 1.96619,11.604438 2.82721,16.680576 0.50119,2.968575 1.19514,7.068035 1.54212,9.124195 0.34697,2.0433 0.95097,5.62872 1.34935,7.96761 2.27462,13.46782 2.15897,12.83813 2.673,13.72484 0.73251,1.25939 2.09472,2.0176 3.58543,2.0176 0.43693,0 3.36695,-0.43693 6.51544,-0.96383 3.14849,-0.53973 7.41502,-1.25939 9.45832,-1.60636 5.56448,-0.93813 10.52495,-1.78629 57.37963,-9.70249 23.6458,-3.99666 43.29494,-7.35076 43.65477,-7.45357 0.95097,-0.28272 1.9405,-1.11804 2.41599,-2.04331 0.69394,-1.37505 0.7068,-1.29794 -1.60638,-14.791473 -0.20562,-1.20799 -0.80961,-4.793417 -1.34935,-7.967611 -0.53974,-3.18704 -1.19514,-7.119436 -1.47786,-8.73866 -0.28273,-1.632073 -0.88672,-5.2175 -1.34936,-7.96761 -1.25939,-7.47927 -2.30032,-13.647734 -3.08424,-18.24839 -0.38552,-2.261772 -0.89956,-5.307451 -1.14373,-6.772467 -0.25702,-1.45216 -0.48834,-2.814358 -0.53974,-3.019975 -0.28272,-1.15659 -1.32365,-2.390285 -2.46739,-2.891471 -0.83531,-0.359826 -2.0947,-0.359826 -4.35648,0.01288 l -1.82484,0.308426 -0.6811,-0.43693 C 113.85619,37.915815 101.32648,29.652628 84.41459,18.48513 L 69.43035,8.5770231 69.68737,8.2043495 c 0.33412,-0.4754908 0.61684,-1.4007594 0.61684,-2.0690109 0,-0.4240822 0.0771,-0.6039951 0.39839,-0.9124208 0.23131,-0.2056172 0.48833,-0.5782908 0.59114,-0.8224601 0.24417,-0.5654427 0.23132,-1.6577767 0,-2.2232197 C 70.6769,0.699375 68.94201,-0.09739 67.60551,0.48091 Z m -4.11231,9.1113424 -0.43693,0.4497866 0.57829,-0.01288 c 0.30842,-0.01288 0.7068,-0.051443 0.88672,-0.1028081 0.30842,-0.089961 0.32127,-0.1028086 0.0385,-0.1927694 -0.14136,-0.051357 -0.33413,-0.167065 -0.41123,-0.2570171 -0.0771,-0.089961 0.16706,-0.012882 0.53973,0.167065 0.95098,0.4754826 2.30033,0.4754826 3.31556,0 l 0.7325,-0.3469809 15.6525,10.3450375 c 8.623,5.692981 18.81383,12.426896 22.65628,14.984246 l 6.99093,4.652047 -0.56544,0.08996 c -0.30843,0.03856 -2.27463,0.372673 -4.35649,0.732508 -2.08186,0.346969 -6.21987,1.053773 -9.18845,1.554968 -2.96857,0.501186 -7.24795,1.220838 -9.50972,1.606368 -2.26177,0.38553 -6.18132,1.040925 -8.70011,1.477863 -2.53165,0.424083 -6.65681,1.11803 -9.16275,1.542121 -2.50594,0.424082 -6.6054,1.118029 -9.08564,1.542111 -6.65681,1.118038 -13.0566,2.197515 -18.28695,3.084241 -5.16609,0.87386 -11.1161,1.876241 -16.70627,2.827214 C 21.13632,54.98185 12.38481,56.459714 10.88124,56.703883 10.04592,56.845244 9.33912,56.935205 9.31343,56.9095 9.24923,56.84526 10.50856,55.740054 36.0049,33.417907 58.30135,13.884422 63.75017,9.1424053 63.86583,9.1424053 c 0.0386,0 -0.12851,0.2056172 -0.37268,0.4497865 z"
       id="path18408-9"
       style="fill:#008000;stroke:none;stroke-width:0.0128509" />
  </g>
  <g
     inkscape:groupmode="layer"
     id="layer2"
     inkscape:label="Livello 2"
     style="display:none">
    <text
       xml:space="preserve"
       transform="matrix(0.25741033,-0.06119036,0.06119036,0.25741033,-42.883426,7.7862958)"
       id="text39990"
       style="font-size:133.333px;line-height:1.25;font-family:Nunito;-inkscape-font-specification:Nunito;white-space:pre;shape-inside:url(#rect39992);fill:#000000"><tspan
         x="132.70312"
         y="426.17694"
         id="tspan3840">TO DO</tspan></text>
  </g>
</svg>
